<?xml version="1.0" standalone="no"?><!-- Generator: Gravit.io --><svg xmlns="http://www.w3.org/2000/svg" xmlns:xlink="http://www.w3.org/1999/xlink" style="isolation:isolate" viewBox="181.795 224.286 181.016 148.312" width="181.016" height="148.312"><g id="Group"><path d=" M 231.462 279.366 L 254.269 268.734 Q 271.417 273.021 277.762 282.795 Q 242.78 287.939 231.462 279.366 Z " fill="rgb(255,221,147)"/><path d=" M 268.502 265.061 Q 299.368 252.029 316.516 267.291 Q 291.137 278.78 268.502 265.061 Z " fill="rgb(255,221,147)"/><path d=" M 303.762 249.26 Q 328.597 221.126 362.811 247.697 Q 323.214 275.137 303.762 249.26 Z " fill="rgb(255,221,147)"/><path d=" M 207.299 288.907 Q 235.588 265.922 268.003 257.082 C 300.418 248.241 296.587 251.777 311.321 224.962 Q 271.834 219.952 267.561 252.072 Q 261.815 253.693 257.1 255.903 Q 263.73 238.222 263.583 225.698 Q 229.4 230.754 232.642 265.061 Q 226.748 268.869 223.801 271.079 Q 224.98 250.304 217.908 240.874 Q 192.565 265.038 207.299 288.907 Z " fill="rgb(255,221,147)"/><path d=" M 209.802 293.335 L 209.802 293.335 L 216.407 301.105 L 209.802 293.335 Z " fill="rgb(255,221,147)"/><path d=" M 202.976 292.175 Q 202.419 291.06 200.376 288.089 Q 146.108 338.625 250.333 372.598 L 251.02 369.425 Q 153.278 334.69 202.976 292.175 Z " fill="rgb(255,221,147)"/></g></svg>