<?xml version="1.0" standalone="no"?><!-- Generator: Gravit.io --><svg xmlns="http://www.w3.org/2000/svg" xmlns:xlink="http://www.w3.org/1999/xlink" style="isolation:isolate" viewBox="117.341 127.058 283.465 283.465" width="283.465" height="283.465"><g id="Group"><path d=" M 117.341 268.79 C 117.341 190.566 180.849 127.058 259.073 127.058 C 337.298 127.058 400.806 190.566 400.806 268.79 C 400.806 347.015 337.298 410.523 259.073 410.523 C 180.849 410.523 117.341 347.015 117.341 268.79 Z " fill="rgb(0,84,32)"/><g id="logo"><path d=" M 224.38 252.753 L 247.187 242.121 Q 264.335 246.408 270.68 256.182 Q 235.698 261.326 224.38 252.753 Z " fill="rgb(255,221,147)"/><path d=" M 261.42 238.448 Q 292.286 225.416 309.434 240.678 Q 284.055 252.167 261.42 238.448 Z " fill="rgb(255,221,147)"/><path d=" M 296.68 222.647 Q 321.515 194.513 355.729 221.084 Q 316.132 248.524 296.68 222.647 Z " fill="rgb(255,221,147)"/><path d=" M 200.217 262.294 Q 228.506 239.309 260.921 230.469 C 293.336 221.628 289.505 225.164 304.239 198.349 Q 264.752 193.339 260.479 225.459 Q 254.733 227.08 250.018 229.29 Q 256.648 211.609 256.501 199.085 Q 222.318 204.141 225.56 238.448 Q 219.666 242.256 216.719 244.466 Q 217.898 223.691 210.826 214.261 Q 185.483 238.425 200.217 262.294 Z " fill="rgb(255,221,147)"/><path d=" M 195.894 265.562 Q 195.337 264.447 193.294 261.476 Q 139.026 312.012 243.251 345.985 L 243.938 342.812 Q 146.196 308.077 195.894 265.562 Z " fill="rgb(255,221,147)"/></g></g></svg>